<svg width="86" height="42" viewBox="0 0 100 52" fill="none" xmlns="http://www.w3.org/2000/svg">
<path d="M1.75 34.9862C2.16667 34.8196 2.5 34.5696 2.91667 34.4862C4.41667 34.2362 5.83333 33.9862 7.5 33.6529C7.58333 32.8196 7.58333 31.9862 7.66667 31.2362C7.83333 30.2362 8 29.1529 8.33333 28.1529C9.25 25.3196 11.4167 23.9029 14.1667 23.2362C15.8333 22.8196 17.5 22.4029 19.25 21.9029C18.3333 23.6529 17.4167 25.2362 16.5833 26.8196C15.75 28.5696 16.3333 30.4862 16.5 32.3196C16.8333 30.4029 17.0833 28.4029 17.5 26.4862C17.9167 24.4029 19.5 23.1529 20.9167 21.7362C23.6667 24.9029 24.25 23.9862 25.1667 31.7362C26 31.7362 26.8333 31.7362 27.6667 31.7362C28.5 31.6529 29.4167 31.5696 30.5833 31.4029C29.8333 30.8196 29.3333 30.4029 28.75 29.9029C26.8333 28.4862 26.1667 26.4029 25.8333 24.1529C25.75 23.4862 25.5833 22.8196 25.6667 22.1529C26.0833 18.6529 27.0833 15.5696 30.9167 13.9862C32.5833 13.3196 34.3333 13.4862 36.0833 13.4862C36.4167 13.4862 36.8333 13.5696 37.3333 13.5696C37.5 13.1529 37.6667 12.8196 37.9167 12.1529C38.8333 12.3196 39.75 12.5696 40.5833 12.7362C41.25 14.3196 41.8333 15.6529 42.5 17.0696C42.4167 17.4029 42.25 17.7362 42.1667 18.1529C43.0833 18.1529 43.9167 18.1529 44.75 18.1529C44.75 18.0696 44.75 17.9862 44.8333 17.8196C44.4167 17.6529 43.9167 17.4862 43.5 17.3196C45.5 16.5696 47.5833 16.9029 49.6667 16.6529C49.75 17.4029 49.9167 18.1529 50 19.1529C51 18.1529 51.75 17.1529 52.75 16.5696C53.75 15.9862 54.9167 15.7362 56.0833 15.5696C57.25 15.4029 58.5 15.5696 59.75 15.5696C59.75 15.7362 59.8333 15.9029 59.8333 15.9862C58.9167 16.2362 58 16.4862 57.0833 16.7362C57.0833 16.9029 57 16.9862 57 17.1529C60.3333 16.9862 62.3333 18.9029 63.8333 21.6529C65.3333 21.6529 66.9167 21.6529 68.3333 21.6529C70.1667 24.8196 69.25 27.4029 65.8333 28.9862C67.0833 29.2362 67.3333 29.2362 68.25 28.2362C70 26.4862 70.0833 24.4029 69.5 22.0696C70.1667 21.4862 70.6667 20.8196 70.1667 19.8196C68.25 18.7362 66 19.8196 64 19.1529C64 18.9862 64 18.9029 64 18.7362C65.3333 18.7362 66.6667 18.7362 67.9167 18.7362C67.9167 18.5696 67.9167 18.4862 67.9167 18.3196C66.5833 18.3196 65.25 18.3196 63.9167 18.3196C63.9167 18.1529 63.9167 17.9862 63.9167 17.9029C64.5833 17.9029 65.1667 17.9029 65.8333 17.9029C66.4167 17.9029 67.0833 17.9029 67.6667 17.9029C67.6667 17.8196 67.6667 17.7362 67.6667 17.6529C66.4167 17.6529 65.25 17.6529 64 17.6529C64 17.5696 64 17.4029 64 17.3196C65.25 17.1529 66.4167 16.9862 67.6667 16.8196C67.6667 16.7362 67.6667 16.6529 67.6667 16.4862C66.4167 16.4862 65.0833 16.4862 63.8333 16.4862C63.8333 16.4029 63.8333 16.2362 63.8333 16.1529C65.1667 16.1529 66.5 16.1529 67.8333 16.1529C67.8333 16.0696 67.8333 15.9029 67.8333 15.8196C66.5833 15.8196 65.25 15.8196 64 15.8196C64 15.6529 64 15.5696 64 15.4029C65.25 15.4029 66.5 15.4029 67.75 15.4029C67.75 15.3196 67.75 15.1529 67.75 15.0696C66.5833 15.0696 65.4167 15.0696 64.1667 15.0696C64.0833 14.4862 64 14.0696 63.9167 13.5696C65.25 13.5696 66.5 13.5696 67.6667 13.5696C67.6667 13.4862 67.6667 13.4029 67.6667 13.3196C66.4167 13.3196 65.1667 13.3196 64 13.3196C63.4167 12.9029 62.8333 12.4862 62.0833 11.9862C63.75 11.4862 65.0833 12.0696 66.3333 12.3196C67.5833 12.5696 68.6667 13.2362 70.1667 13.8196C69.5 14.4029 69.1667 14.8196 68.75 15.1529C68.75 15.9862 68.75 16.8196 68.75 17.7362C72.1667 18.4029 74 20.5696 74.4167 23.8196C74.9167 27.0696 73.5833 29.5696 70.75 31.3196C70.8333 31.4029 70.9167 31.5696 70.9167 31.6529C73.5 31.8196 76.0833 31.9862 78.75 32.1529C78.75 31.2362 78.75 30.4862 78.75 29.6529C78 29.2362 77.25 28.8196 76.5 28.4862C76.6667 26.3196 77.6667 23.9862 79.25 22.2362C80.75 23.9862 81.5 26.0696 82.1667 28.4029C81.3333 28.8196 80.5833 29.2362 79.5833 29.7362C79.5833 30.3196 79.5833 31.1529 79.5833 32.0696C81.75 32.7362 83.9167 32.6529 86.25 32.8196C86.25 31.3196 86.25 29.9029 86.25 28.4862C85.75 28.4862 85.25 28.4029 84.75 28.4029C84.1667 27.9029 83.5 27.4029 82.9167 26.9862C83.25 24.0696 85.3333 19.7362 86.75 18.8196C88.3333 19.9029 90.5 24.5696 90.5833 27.4029C89.6667 27.8196 88.5833 28.2362 87.25 28.9029C87.25 29.2362 87.25 29.9862 87.25 30.7362C87.25 31.4862 87.25 32.2362 87.25 33.0696C91 33.6529 94.6667 34.1529 98.25 34.7362C98.25 34.8196 98.25 34.9029 98.25 34.9862C96.6667 34.9862 95.0833 35.0696 93.5833 34.9862C88.5833 34.8196 83.5833 34.4862 78.6667 34.4029C65.9167 34.2362 53.1667 34.0696 40.5 33.9862C33.0833 33.9862 25.6667 34.2362 18.25 34.4029C13.4167 34.5696 8.66667 34.9029 3.83333 35.1529C3 35.0696 2.41667 34.9862 1.75 34.9862ZM57.5833 28.2362C57.25 28.2362 56.8333 28.2362 56.5 28.2362C55.1667 28.3196 54.25 27.7362 53.6667 26.5696C53.1667 25.4862 53 24.4862 53.3333 23.3196C53.75 21.9862 54.6667 21.2362 56 20.9029C55.3333 20.6529 54.75 20.4029 54 20.0696C53.3333 20.4862 52.5 20.9029 52 21.5696C50.5 23.6529 51.0833 27.3196 53.1667 28.8196C54.5833 29.7362 56.5833 29.4862 57.5833 28.2362C57.5833 28.1529 57.5833 28.1529 57.6667 28.0696C57.6667 28.0696 57.6667 28.1529 57.5833 28.2362ZM31 18.4029C31.1667 18.1529 31.3333 17.8196 31.5 17.4862C31.4167 17.4029 31.3333 17.4029 31.25 17.3196C30.6667 17.8196 30.0833 18.3196 29.5 18.8196C29.5833 18.4029 29.75 18.0696 29.8333 17.6529L29.9167 17.5696C29.9167 17.6529 29.8333 17.6529 29.8333 17.7362C29.6667 17.8196 29.4167 17.8196 29.3333 17.9029C27 20.3196 26.9167 24.7362 29.25 27.3196C31.25 29.4862 33.8333 29.3196 35.6667 26.9862C32.75 27.9029 31.1667 27.2362 30.1667 24.7362C29.5833 23.3196 29.6667 21.9029 30.25 20.5696C30.8333 19.0696 32.1667 18.4029 33.5 17.7362C32.75 17.9029 31.8333 18.1529 31 18.4029ZM40.4167 26.4862C41.5833 26.4862 42.5833 26.4862 43.6667 26.4862C44 25.2362 44.4167 24.0696 44.75 22.9029C45.25 22.6529 45.75 22.4029 46.25 22.1529C46.25 21.6529 46.25 21.2362 46.25 20.7362C44.9167 20.7362 43.6667 20.7362 42.25 20.7362C41.6667 22.6529 41.0833 24.4862 40.4167 26.4862ZM22.5 32.1529C22.5 31.1529 22.5 30.3196 22.5 29.4862C21.4167 29.4862 20.4167 29.4862 19.5 29.4862C19.5 30.4862 19.5 31.3196 19.5 32.1529C20.5 32.1529 21.4167 32.1529 22.5 32.1529ZM66.6667 24.9029C66.6667 24.7362 66.6667 24.5696 66.6667 24.4029C65.9167 24.1529 65.1667 23.9029 64.3333 23.5696C64.3333 24.4029 64.3333 25.0696 64.3333 25.8196C65.25 25.4862 65.9167 25.2362 66.6667 24.9029ZM63.5 31.2362C63.25 30.6529 63.0833 30.4029 63 30.0696C63.1667 29.5696 63.3333 29.0696 63.5 28.5696C63.4167 28.5696 63.3333 28.4862 63.3333 28.4862C62.5833 29.3196 61.9167 30.1529 60.9167 31.2362C61.8333 31.1529 62.5 31.2362 63.5 31.2362ZM51.25 29.5696C50.75 30.0696 50.3333 30.4029 49.6667 31.0696C50.8333 31.0696 51.5833 31.4029 52.4167 30.8196C52 30.4029 51.6667 30.0696 51.25 29.5696ZM64.4167 14.1529C65.8333 14.7362 66.8333 14.7362 67.8333 14.1529C66.8333 14.1529 65.8333 14.1529 64.4167 14.1529ZM40.75 29.4029C40 29.9862 39.4167 30.4862 38.6667 31.1529C39.4167 31.1529 39.8333 31.1529 40.3333 31.1529C40.4167 30.5696 40.5833 30.0696 40.75 29.4029Z" fill="#4A4A4A"/>
<path d="M35.0001 10.9029C35.4167 10.7363 35.9167 10.6529 36.4167 10.4029C36.6667 8.3196 36.9167 6.23626 37.2501 3.98626C37.0834 3.5696 36.9167 2.98626 36.5834 2.15293C37.2501 1.90293 37.8334 1.5696 38.4167 1.48626C45.3334 0.40293 51.75 0.986263 54.1666 2.23626C53.5 5.0696 54.6666 7.8196 54.5833 10.7363C53.1666 10.9029 51.75 11.0696 50.3333 11.1529C50.0833 11.6529 49.8333 12.0696 49.5833 12.5696C49.3333 12.5696 49.1667 12.5696 49 12.5696C46.9167 12.4863 44.75 12.4863 42.6667 12.4029C41.6667 12.3196 40.75 12.0696 39.7501 11.9029C38.8334 11.7363 37.9167 11.6529 37.0001 11.5696C36.3334 11.4863 35.5834 11.4029 34.9167 11.3196C35.0001 11.2363 35.0001 11.0696 35.0001 10.9029ZM50.6667 8.40293C51.5 9.15293 52.4166 9.90293 53.25 10.6529C53.3333 10.5696 53.5 10.4863 53.5833 10.4029C53.25 8.3196 52.9166 6.15293 52.5833 3.98626C51.0833 3.98626 49.8333 3.98626 48.4167 3.98626C48.5 5.40293 48.5833 6.65293 48.75 7.98626C49.5 8.15293 50.0833 8.3196 50.6667 8.40293ZM38.4167 3.8196C38.2501 6.23626 37.4167 8.48626 38.0001 10.8196C38.5001 10.8196 38.9167 10.8196 39.3334 10.8196C40.5 8.65293 40.3334 6.3196 40.3334 3.90293C39.5834 3.90293 39.1667 3.8196 38.4167 3.8196ZM41 3.98626C40.9167 5.40293 40.8334 6.5696 40.8334 7.98626C42 8.15293 42.9167 8.23626 44 8.3196C44 6.8196 44 5.5696 44 4.23626C43 4.15293 42.0834 4.0696 41 3.98626ZM45 4.15293C44.6667 8.73626 45 10.7363 46.25 11.6529C46.25 9.0696 46.25 6.5696 46.25 3.98626C45.75 4.0696 45.4167 4.15293 45 4.15293Z" fill="#4A4A4A"/>
<path d="M60.4167 13.4863C61.1667 13.4863 61.75 13.5696 62.3333 13.5696C62.5 14.6529 61.9167 14.6529 61.3333 14.6529C60.75 14.7363 60.25 14.6529 60.4167 13.4863Z" fill="#4A4A4A"/>
<path d="M51 13.7363C52.1667 13.7363 53.0001 13.7363 53.9167 13.7363C52.9167 14.4863 52.5834 14.4863 51 13.7363Z" fill="#4A4A4A"/>
<path d="M49.4166 16.153C48.6667 16.153 48 16.153 47.25 16.153C47.25 16.0696 47.25 15.9863 47.25 15.903C48 15.903 48.75 15.903 49.5833 15.903C49.5 15.9863 49.4166 16.0696 49.4166 16.153Z" fill="#4A4A4A"/>
<path d="M52.5833 15.153C52.25 15.153 51.9166 15.153 51.5833 15.153C51.5833 15.0696 51.5833 14.9863 51.5833 14.903C51.9166 14.903 52.25 14.903 52.5833 14.903C52.5833 14.9863 52.5833 15.0696 52.5833 15.153Z" fill="#4A4A4A"/>
<path d="M48 15.1529C48.4167 15.1529 48.9167 15.1529 49.3334 15.1529V15.2362C48.9167 15.2362 48.4167 15.2362 48 15.2362C48 15.2362 48 15.2362 48 15.1529Z" fill="#4A4A4A"/>
<path d="M1.75 34.903C1.5 34.9863 1.33333 35.1529 1.08333 35.2363C0.75 35.3196 0.333333 35.2363 0 34.9863C0.583333 34.9863 1.16667 34.9863 1.75 34.903Z" fill="#4A4A4A"/>
<path d="M48.5833 13.3196C48.8333 13.3196 49.0833 13.3196 49.4166 13.3196V13.4029C49.1666 13.4029 48.9166 13.4029 48.5833 13.4029C48.5833 13.4029 48.5833 13.4029 48.5833 13.3196Z" fill="#4A4A4A"/>
<path d="M100 35.1529C99.75 35.1529 99.5 35.1529 99.25 35.1529V35.0696C99.5 35.0696 99.75 35.0696 100 35.0696V35.1529Z" fill="#4A4A4A"/>
<path d="M31 18.403L30.9167 18.4863C30.9167 18.5696 31 18.4863 31 18.403Z" fill="#4A4A4A"/>
<path d="M29.5 18.8196C29.5 18.9029 29.4167 18.9029 29.4167 18.9862C29.4167 18.9029 29.5 18.9029 29.5 18.8196Z" fill="#4A4A4A"/>
<path d="M54.25 21.0696C54.3333 20.9863 54.3333 20.9863 54.3333 20.9863C54.3333 20.9863 54.25 20.9863 54.25 21.0696Z" fill="#4A4A4A"/>
<path d="M54.25 21.0696L54.1667 21.1529L54.25 21.0696Z" fill="#4A4A4A"/>
<path d="M42.9168 25.9029C42.3334 25.9029 42 25.9029 41.4167 25.9029C41.5834 25.2362 41.75 24.6529 41.9167 24.0696C42.4167 24.0696 42.7501 23.9862 43.3334 23.9862C43.2501 24.7362 43.0834 25.2362 42.9168 25.9029Z" fill="#4A4A4A"/>
<path d="M44 23.2363C43.3333 23.3196 42.9166 23.3196 42.3333 23.4029C42.8333 22.4863 43.1666 22.4863 44 23.2363Z" fill="#4A4A4A"/>
<path d="M5 39.653H10.8333L13.0832 51.5696H9.41662L8.99995 49.653C8.99995 49.4863 8.91662 49.3196 8.74996 49.2363C8.58329 49.153 8.49996 49.0696 8.33329 49.0696H7.08331C6.74998 49.0696 6.58331 49.2363 6.49998 49.653L6.16665 51.4863H4.16668L5.74999 41.9863C5.74999 41.653 5.58333 41.4863 5.25 41.4863H5V39.653ZM8.49996 46.8196L7.91663 43.4863C7.91663 43.3196 7.8333 43.2363 7.66664 43.2363C7.5833 43.2363 7.49997 43.3196 7.49997 43.4863L6.91664 46.7363C6.91664 47.0696 7.08331 47.3196 7.33331 47.3196H8.0833C8.16663 47.3196 8.33329 47.3196 8.41663 47.2363C8.49996 47.0696 8.49996 46.9863 8.49996 46.8196Z" fill="#F20009"/>
<path d="M24.25 39.6529V43.1529H22.0833V42.3196C22.0833 42.1529 22 41.9863 21.9166 41.8196C21.8333 41.6529 21.6666 41.6529 21.4166 41.6529H20.6666C20.5 41.6529 20.3333 41.7363 20.1666 41.8196C20 41.9029 20 42.0696 20 42.3196V51.6529H16.1666V42.1529C16.1666 41.9029 16.0833 41.7363 15.9999 41.6529C15.9166 41.5696 15.7499 41.4863 15.4999 41.4863H15.3333V39.5696H24.25V39.6529Z" fill="#F20009"/>
<path d="M25.75 39.653H31.75C32.5 39.653 33.1667 39.8196 33.75 40.2363C34.3333 40.653 34.75 41.153 35.0833 41.7363C35.4166 42.3196 35.5833 42.903 35.5833 43.4863C35.5833 44.7363 35.1666 45.8196 34.3333 46.653C33.5 47.4863 32.4167 48.0696 30.9167 48.403C30.75 48.403 30.6667 48.4863 30.5833 48.5696C30.5 48.653 30.4167 48.8196 30.4167 49.0696V51.5696H26.75V42.0696C26.75 41.903 26.6667 41.7363 26.5833 41.5696C26.4167 41.403 26.25 41.3196 26.0833 41.3196H25.8333V39.653H25.75ZM30.4167 45.3196C30.4167 45.4863 30.5 45.5696 30.5833 45.653C30.6667 45.7363 30.75 45.8196 30.9167 45.8196C31.0833 45.8196 31.1667 45.7363 31.25 45.653C31.5833 45.403 31.75 45.0696 31.9167 44.653C32.0833 44.2363 32.1667 43.903 32.1667 43.4863C32.1667 43.0696 32.0833 42.7363 32 42.403C31.9167 42.0696 31.6667 41.7363 31.4167 41.4863C31.25 41.3196 31.0833 41.2363 30.9167 41.2363C30.8333 41.2363 30.6667 41.2363 30.5833 41.3196C30.5 41.403 30.4167 41.4863 30.4167 41.653V45.3196Z" fill="#F20009"/>
<path d="M44.8334 39.653C45.5 39.9863 46 40.4863 46.5 41.153C47 41.8196 47.3334 42.4863 47.5834 43.2363C47.8334 43.9863 47.9167 44.7363 47.9167 45.5696C47.9167 46.153 47.8334 46.8196 47.75 47.403C47.6667 47.9863 47.4167 48.5696 47.25 49.0696C47 49.5696 46.6667 50.0696 46.3334 50.4863C45.9167 50.903 45.5 51.3196 45 51.5696H40.75C40.25 51.3196 39.8334 50.903 39.4167 50.4863C39 50.0696 38.6667 49.5696 38.4167 48.9863C38.1667 48.403 37.9167 47.903 37.8334 47.3196C37.6667 46.7363 37.6667 46.153 37.6667 45.5696C37.6667 44.9863 37.75 44.403 37.8334 43.8196C37.9167 43.2363 38.1667 42.653 38.4167 42.153C38.6667 41.653 39 41.153 39.3334 40.7363C39.6667 40.3196 40.1667 39.9863 40.6667 39.653H44.8334ZM41.1667 45.4863C41.1667 46.153 41.25 46.8196 41.3334 47.5696C41.4167 48.3196 41.5834 48.903 41.8334 49.2363C41.9167 49.403 42.0834 49.5696 42.25 49.653C42.4167 49.7363 42.5834 49.8196 42.75 49.8196C42.9167 49.8196 43.0834 49.7363 43.25 49.653C43.4167 49.5696 43.5834 49.403 43.6667 49.2363C43.8334 48.903 44 48.3196 44.1667 47.5696C44.25 46.8196 44.3334 46.153 44.3334 45.4863C44.3334 45.0696 44.3334 44.653 44.25 44.153C44.1667 43.653 44.1667 43.2363 44.0834 42.8196C44 42.403 43.9167 42.0696 43.75 41.903C43.5 41.4863 43.1667 41.3196 42.8334 41.3196C42.5 41.3196 42.1667 41.4863 41.9167 41.903C41.75 42.153 41.6667 42.403 41.5834 42.903C41.5 43.3196 41.4167 43.7363 41.3334 44.2363C41.1667 44.7363 41.1667 45.153 41.1667 45.4863Z" fill="#F20009"/>
<path d="M54.25 39.6529V42.3196C54.25 42.4863 54.3333 42.6529 54.4166 42.7363C54.5 42.8196 54.6666 42.9029 54.75 42.9029C54.9166 42.9029 55.0833 42.8196 55.25 42.6529C55.5833 42.4029 55.8333 41.9863 56 41.5696C56.1666 41.1529 56.25 40.6529 56.25 40.1529V39.5696H59.1666C59.1666 39.9863 59.1666 40.3196 59.0833 40.4863C59.0833 40.7363 59 40.9029 58.9166 41.0696C58.75 41.7363 58.3333 42.4029 57.75 43.0696C57.5833 43.2363 57.5833 43.3196 57.5833 43.4863C57.5833 43.6529 57.6666 43.8196 57.8333 43.9863C58.3333 44.4863 58.75 44.9863 59 45.4863C59.25 45.9863 59.5 46.4029 59.6666 46.9029C59.8333 47.4029 59.9166 47.9863 60.0833 48.5696C60.1666 48.9863 60.1666 49.4029 60.1666 49.8196C60.1666 50.3196 60.0833 50.903 60 51.5696H56.3333V49.1529C56.3333 48.6529 56.25 48.2363 56.1666 47.7363C56.0833 47.2363 55.9166 46.8196 55.75 46.4029C55.5833 45.9863 55.3333 45.7363 55.1666 45.5696C55 45.4029 54.8333 45.4029 54.6666 45.4029C54.5833 45.4029 54.4166 45.4863 54.3333 45.5696C54.25 45.6529 54.25 45.8196 54.25 46.0696V51.5696H50.5833V42.0696C50.5833 41.6529 50.3333 41.4029 49.9166 41.4029H49.6666V39.6529H54.25Z" fill="#F20009"/>
<path d="M62.1666 41.4863V39.5696H71.6666V42.4029H69.5833V42.1529C69.5833 41.9029 69.5 41.7363 69.4166 41.6529C69.3333 41.5696 69.1666 41.4863 68.9166 41.4863H67.8333C67.5833 41.4863 67.4166 41.5696 67.3333 41.6529C67.25 41.8196 67.1666 41.9029 67.1666 42.1529V42.9863C67.1666 43.4029 67.4166 43.6529 67.8333 43.6529H69.8333V45.8196H67.8333C67.3333 45.8196 67.1666 46.0696 67.1666 46.4863V48.9029C67.1666 49.1529 67.25 49.3196 67.3333 49.4029C67.5 49.4863 67.6666 49.5696 67.8333 49.5696H68.9166C69.3333 49.5696 69.5833 49.3196 69.5833 48.9029V48.6529H71.6666V51.4863H63.1666V42.2363C63.1666 41.7363 62.9166 41.5696 62.5 41.5696H62.1666V41.4863Z" fill="#F20009"/>
<path d="M78.1666 39.6529V44.4029C78.1666 44.5696 78.25 44.6529 78.4166 44.6529C78.5 44.6529 78.5833 44.5696 78.6666 44.4862L80.3333 39.5696H84.4167V51.4862H80.8333V46.4029C80.8333 46.3196 80.8333 46.2362 80.75 46.1529C80.6667 46.0696 80.5833 46.0696 80.5 46.0696C80.3333 46.0696 80.25 46.1529 80.25 46.3196L78.5833 51.4862H74.6666V42.3196C74.6666 41.8196 74.4166 41.5696 73.8333 41.5696V39.6529H78.1666ZM77.1666 36.5696H81.9167V38.5696H77.1666V36.5696Z" fill="#F20009"/>
<path d="M95.8333 39.653V41.5696H94.0833C93.5833 41.5696 93.0833 41.7363 92.6667 42.0696C92.25 42.403 91.9167 42.903 91.75 43.5696C91.5 44.153 91.4167 44.903 91.4167 45.653C91.4167 46.403 91.5 47.0696 91.75 47.653C92 48.2363 92.25 48.7363 92.6667 49.153C93.0833 49.4863 93.5 49.7363 94.0833 49.7363H95.8333V51.653H91.8333C91.3333 51.653 90.8333 51.5696 90.25 51.3196C89.6667 51.0696 89.25 50.7363 88.75 50.2363C88.25 49.7363 87.9167 49.153 87.6667 48.403C87.4167 47.653 87.25 46.7363 87.25 45.7363C87.25 44.7363 87.4167 43.8196 87.6667 43.0696C87.9167 42.3196 88.3333 41.653 88.75 41.153C89.1667 40.653 89.6667 40.3196 90.25 40.0696C90.8333 39.8196 91.25 39.7363 91.8333 39.7363H95.8333V39.653Z" fill="#F20009"/>
</svg>
